# xmcd CD database file
#
# Track frame offsets:
#	189
#	23359
#	43592
#	73541
#	105360
#	132459
#	153831
#	174318
#	199164
#	220112
#
# Disc length: 3311 seconds
#
# Revision: 0
# Processed by: cddbd v1.4PL0 Copyright (c) Steve Scherf et al.
# Submitted via: CDex 1.50Beta7
#
DISCID=7a0ced0a
DTITLE=Zoot Sims Quintet - The Modern Art Of Jazz
DYEAR=1900
DGENRE=Jazz
TTITLE0=September In The Rain
TTITLE1=Down  At The Loft
TTITLE2=Ghost Of a Chance
TTITLE3=No So Deep
TTITLE4=Them There Eyes
TTITLE5=Our Pad
TTITLE6=Dark Clouds
TTITLE7=One To Blow On
TTITLE8=When The Blues Come On
TTITLE9=Buried  Gold
EXTD=
EXTT0=
EXTT1=
EXTT2=
EXTT3=
EXTT4=
EXTT5=
EXTT6=
EXTT7=
EXTT8=
EXTT9=
PLAYORDER=
